<mxfile host="65bd71144e">
    <diagram id="__ODvJQt5nC0kvdn8f0h" name="ページ1">
        <mxGraphModel dx="833" dy="467" grid="1" gridSize="10" guides="1" tooltips="1" connect="1" arrows="1" fold="1" page="1" pageScale="1" pageWidth="1654" pageHeight="2336" math="0" shadow="0">
            <root>
                <mxCell id="0"/>
                <mxCell id="1" parent="0"/>
                <mxCell id="sHaU1hGDwePTZCBr7m-u-2" value="HttpRequest" style="swimlane;fontStyle=0;childLayout=stackLayout;horizontal=1;startSize=26;fillColor=none;horizontalStack=0;resizeParent=1;resizeParentMax=0;resizeLast=0;collapsible=1;marginBottom=0;" parent="1" vertex="1">
                    <mxGeometry x="90" y="204" width="140" height="52" as="geometry"/>
                </mxCell>
                <mxCell id="sHaU1hGDwePTZCBr7m-u-6" value="HttpParser" style="swimlane;fontStyle=0;childLayout=stackLayout;horizontal=1;startSize=26;fillColor=none;horizontalStack=0;resizeParent=1;resizeParentMax=0;resizeLast=0;collapsible=1;marginBottom=0;" parent="1" vertex="1">
                    <mxGeometry x="90" y="380" width="140" height="52" as="geometry"/>
                </mxCell>
                <mxCell id="sHaU1hGDwePTZCBr7m-u-26" value="" style="edgeStyle=orthogonalEdgeStyle;rounded=0;orthogonalLoop=1;jettySize=auto;html=1;" parent="1" source="sHaU1hGDwePTZCBr7m-u-18" target="sHaU1hGDwePTZCBr7m-u-22" edge="1">
                    <mxGeometry relative="1" as="geometry"/>
                </mxCell>
                <mxCell id="sHaU1hGDwePTZCBr7m-u-32" value="" style="edgeStyle=orthogonalEdgeStyle;rounded=0;orthogonalLoop=1;jettySize=auto;html=1;" parent="1" source="sHaU1hGDwePTZCBr7m-u-18" target="sHaU1hGDwePTZCBr7m-u-28" edge="1">
                    <mxGeometry relative="1" as="geometry"/>
                </mxCell>
                <mxCell id="sHaU1hGDwePTZCBr7m-u-38" value="" style="edgeStyle=orthogonalEdgeStyle;rounded=0;orthogonalLoop=1;jettySize=auto;html=1;" parent="1" source="sHaU1hGDwePTZCBr7m-u-18" target="sHaU1hGDwePTZCBr7m-u-34" edge="1">
                    <mxGeometry relative="1" as="geometry"/>
                </mxCell>
                <mxCell id="sHaU1hGDwePTZCBr7m-u-43" value="" style="edgeStyle=orthogonalEdgeStyle;rounded=0;orthogonalLoop=1;jettySize=auto;html=1;" parent="1" source="sHaU1hGDwePTZCBr7m-u-18" target="sHaU1hGDwePTZCBr7m-u-39" edge="1">
                    <mxGeometry relative="1" as="geometry"/>
                </mxCell>
                <mxCell id="sHaU1hGDwePTZCBr7m-u-18" value="Content" style="swimlane;fontStyle=0;childLayout=stackLayout;horizontal=1;startSize=26;fillColor=none;horizontalStack=0;resizeParent=1;resizeParentMax=0;resizeLast=0;collapsible=1;marginBottom=0;" parent="1" vertex="1">
                    <mxGeometry x="830" y="60" width="140" height="130" as="geometry"/>
                </mxCell>
                <mxCell id="sHaU1hGDwePTZCBr7m-u-19" value="Comment" style="text;strokeColor=none;fillColor=none;align=left;verticalAlign=top;spacingLeft=4;spacingRight=4;overflow=hidden;rotatable=0;points=[[0,0.5],[1,0.5]];portConstraint=eastwest;" parent="sHaU1hGDwePTZCBr7m-u-18" vertex="1">
                    <mxGeometry y="26" width="140" height="26" as="geometry"/>
                </mxCell>
                <mxCell id="sHaU1hGDwePTZCBr7m-u-20" value="Image" style="text;strokeColor=none;fillColor=none;align=left;verticalAlign=top;spacingLeft=4;spacingRight=4;overflow=hidden;rotatable=0;points=[[0,0.5],[1,0.5]];portConstraint=eastwest;" parent="sHaU1hGDwePTZCBr7m-u-18" vertex="1">
                    <mxGeometry y="52" width="140" height="26" as="geometry"/>
                </mxCell>
                <mxCell id="sHaU1hGDwePTZCBr7m-u-21" value="Article" style="text;strokeColor=none;fillColor=none;align=left;verticalAlign=top;spacingLeft=4;spacingRight=4;overflow=hidden;rotatable=0;points=[[0,0.5],[1,0.5]];portConstraint=eastwest;" parent="sHaU1hGDwePTZCBr7m-u-18" vertex="1">
                    <mxGeometry y="78" width="140" height="26" as="geometry"/>
                </mxCell>
                <mxCell id="sHaU1hGDwePTZCBr7m-u-45" value="User" style="text;strokeColor=none;fillColor=none;align=left;verticalAlign=top;spacingLeft=4;spacingRight=4;overflow=hidden;rotatable=0;points=[[0,0.5],[1,0.5]];portConstraint=eastwest;" parent="sHaU1hGDwePTZCBr7m-u-18" vertex="1">
                    <mxGeometry y="104" width="140" height="26" as="geometry"/>
                </mxCell>
                <mxCell id="sHaU1hGDwePTZCBr7m-u-22" value="Article" style="swimlane;fontStyle=0;childLayout=stackLayout;horizontal=1;startSize=26;fillColor=none;horizontalStack=0;resizeParent=1;resizeParentMax=0;resizeLast=0;collapsible=1;marginBottom=0;" parent="1" vertex="1">
                    <mxGeometry x="980" y="354" width="140" height="78" as="geometry"/>
                </mxCell>
                <mxCell id="sHaU1hGDwePTZCBr7m-u-23" value="Title" style="text;strokeColor=none;fillColor=none;align=left;verticalAlign=top;spacingLeft=4;spacingRight=4;overflow=hidden;rotatable=0;points=[[0,0.5],[1,0.5]];portConstraint=eastwest;" parent="sHaU1hGDwePTZCBr7m-u-22" vertex="1">
                    <mxGeometry y="26" width="140" height="26" as="geometry"/>
                </mxCell>
                <mxCell id="sHaU1hGDwePTZCBr7m-u-24" value="url" style="text;strokeColor=none;fillColor=none;align=left;verticalAlign=top;spacingLeft=4;spacingRight=4;overflow=hidden;rotatable=0;points=[[0,0.5],[1,0.5]];portConstraint=eastwest;" parent="sHaU1hGDwePTZCBr7m-u-22" vertex="1">
                    <mxGeometry y="52" width="140" height="26" as="geometry"/>
                </mxCell>
                <mxCell id="sHaU1hGDwePTZCBr7m-u-28" value="Image" style="swimlane;fontStyle=0;childLayout=stackLayout;horizontal=1;startSize=26;fillColor=none;horizontalStack=0;resizeParent=1;resizeParentMax=0;resizeLast=0;collapsible=1;marginBottom=0;" parent="1" vertex="1">
                    <mxGeometry x="760" y="354" width="140" height="52" as="geometry"/>
                </mxCell>
                <mxCell id="sHaU1hGDwePTZCBr7m-u-29" value="src" style="text;strokeColor=none;fillColor=none;align=left;verticalAlign=top;spacingLeft=4;spacingRight=4;overflow=hidden;rotatable=0;points=[[0,0.5],[1,0.5]];portConstraint=eastwest;" parent="sHaU1hGDwePTZCBr7m-u-28" vertex="1">
                    <mxGeometry y="26" width="140" height="26" as="geometry"/>
                </mxCell>
                <mxCell id="sHaU1hGDwePTZCBr7m-u-34" value="Comment" style="swimlane;fontStyle=0;childLayout=stackLayout;horizontal=1;startSize=26;fillColor=none;horizontalStack=0;resizeParent=1;resizeParentMax=0;resizeLast=0;collapsible=1;marginBottom=0;" parent="1" vertex="1">
                    <mxGeometry x="610" y="230" width="140" height="78" as="geometry"/>
                </mxCell>
                <mxCell id="sHaU1hGDwePTZCBr7m-u-35" value="content" style="text;strokeColor=none;fillColor=none;align=left;verticalAlign=top;spacingLeft=4;spacingRight=4;overflow=hidden;rotatable=0;points=[[0,0.5],[1,0.5]];portConstraint=eastwest;" parent="sHaU1hGDwePTZCBr7m-u-34" vertex="1">
                    <mxGeometry y="26" width="140" height="26" as="geometry"/>
                </mxCell>
                <mxCell id="sHaU1hGDwePTZCBr7m-u-36" value="length" style="text;strokeColor=none;fillColor=none;align=left;verticalAlign=top;spacingLeft=4;spacingRight=4;overflow=hidden;rotatable=0;points=[[0,0.5],[1,0.5]];portConstraint=eastwest;" parent="sHaU1hGDwePTZCBr7m-u-34" vertex="1">
                    <mxGeometry y="52" width="140" height="26" as="geometry"/>
                </mxCell>
                <mxCell id="sHaU1hGDwePTZCBr7m-u-39" value="User" style="swimlane;fontStyle=0;childLayout=stackLayout;horizontal=1;startSize=26;fillColor=none;horizontalStack=0;resizeParent=1;resizeParentMax=0;resizeLast=0;collapsible=1;marginBottom=0;" parent="1" vertex="1">
                    <mxGeometry x="1160" y="350" width="140" height="52" as="geometry"/>
                </mxCell>
                <mxCell id="sHaU1hGDwePTZCBr7m-u-40" value="id" style="text;strokeColor=none;fillColor=none;align=left;verticalAlign=top;spacingLeft=4;spacingRight=4;overflow=hidden;rotatable=0;points=[[0,0.5],[1,0.5]];portConstraint=eastwest;" parent="sHaU1hGDwePTZCBr7m-u-39" vertex="1">
                    <mxGeometry y="26" width="140" height="26" as="geometry"/>
                </mxCell>
                <mxCell id="sHaU1hGDwePTZCBr7m-u-47" value="Config" style="swimlane;fontStyle=0;childLayout=stackLayout;horizontal=1;startSize=26;fillColor=none;horizontalStack=0;resizeParent=1;resizeParentMax=0;resizeLast=0;collapsible=1;marginBottom=0;" parent="1" vertex="1">
                    <mxGeometry x="90" y="30" width="250" height="78" as="geometry"/>
                </mxCell>
                <mxCell id="sHaU1hGDwePTZCBr7m-u-48" value="+ COMMENT_TIMELINE_URL: String" style="text;strokeColor=none;fillColor=none;align=left;verticalAlign=top;spacingLeft=4;spacingRight=4;overflow=hidden;rotatable=0;points=[[0,0.5],[1,0.5]];portConstraint=eastwest;" parent="sHaU1hGDwePTZCBr7m-u-47" vertex="1">
                    <mxGeometry y="26" width="250" height="26" as="geometry"/>
                </mxCell>
                <mxCell id="sHaU1hGDwePTZCBr7m-u-49" value="+ SPAN: Duration" style="text;strokeColor=none;fillColor=none;align=left;verticalAlign=top;spacingLeft=4;spacingRight=4;overflow=hidden;rotatable=0;points=[[0,0.5],[1,0.5]];portConstraint=eastwest;" parent="sHaU1hGDwePTZCBr7m-u-47" vertex="1">
                    <mxGeometry y="52" width="250" height="26" as="geometry"/>
                </mxCell>
                <mxCell id="sHaU1hGDwePTZCBr7m-u-52" value="Application" style="swimlane;fontStyle=0;childLayout=stackLayout;horizontal=1;startSize=26;fillColor=none;horizontalStack=0;resizeParent=1;resizeParentMax=0;resizeLast=0;collapsible=1;marginBottom=0;" parent="1" vertex="1">
                    <mxGeometry x="370" y="276" width="140" height="104" as="geometry"/>
                </mxCell>
                <mxCell id="sHaU1hGDwePTZCBr7m-u-53" value="+ config: Config" style="text;strokeColor=none;fillColor=none;align=left;verticalAlign=top;spacingLeft=4;spacingRight=4;overflow=hidden;rotatable=0;points=[[0,0.5],[1,0.5]];portConstraint=eastwest;" parent="sHaU1hGDwePTZCBr7m-u-52" vertex="1">
                    <mxGeometry y="26" width="140" height="26" as="geometry"/>
                </mxCell>
                <mxCell id="sHaU1hGDwePTZCBr7m-u-54" value="+ request:HttpRequest" style="text;strokeColor=none;fillColor=none;align=left;verticalAlign=top;spacingLeft=4;spacingRight=4;overflow=hidden;rotatable=0;points=[[0,0.5],[1,0.5]];portConstraint=eastwest;" parent="sHaU1hGDwePTZCBr7m-u-52" vertex="1">
                    <mxGeometry y="52" width="140" height="26" as="geometry"/>
                </mxCell>
                <mxCell id="2" value="+ parser: HttpParser" style="text;strokeColor=none;fillColor=none;align=left;verticalAlign=top;spacingLeft=4;spacingRight=4;overflow=hidden;rotatable=0;points=[[0,0.5],[1,0.5]];portConstraint=eastwest;" vertex="1" parent="sHaU1hGDwePTZCBr7m-u-52">
                    <mxGeometry y="78" width="140" height="26" as="geometry"/>
                </mxCell>
                <mxCell id="sHaU1hGDwePTZCBr7m-u-56" value="" style="edgeStyle=orthogonalEdgeStyle;rounded=0;orthogonalLoop=1;jettySize=auto;html=1;exitX=0.5;exitY=0;exitDx=0;exitDy=0;entryX=1.02;entryY=0.769;entryDx=0;entryDy=0;entryPerimeter=0;" parent="1" source="sHaU1hGDwePTZCBr7m-u-52" target="sHaU1hGDwePTZCBr7m-u-48" edge="1">
                    <mxGeometry relative="1" as="geometry">
                        <mxPoint x="440" y="190" as="sourcePoint"/>
                        <mxPoint x="290" y="295" as="targetPoint"/>
                    </mxGeometry>
                </mxCell>
                <mxCell id="sHaU1hGDwePTZCBr7m-u-57" value="" style="edgeStyle=orthogonalEdgeStyle;rounded=0;orthogonalLoop=1;jettySize=auto;html=1;exitX=-0.029;exitY=0.808;exitDx=0;exitDy=0;entryX=1;entryY=0.5;entryDx=0;entryDy=0;exitPerimeter=0;" parent="1" source="sHaU1hGDwePTZCBr7m-u-53" edge="1">
                    <mxGeometry relative="1" as="geometry">
                        <mxPoint x="375" y="350.01" as="sourcePoint"/>
                        <mxPoint x="230" y="243" as="targetPoint"/>
                        <Array as="points">
                            <mxPoint x="356" y="243"/>
                        </Array>
                    </mxGeometry>
                </mxCell>
                <mxCell id="sHaU1hGDwePTZCBr7m-u-58" value="" style="edgeStyle=orthogonalEdgeStyle;rounded=0;orthogonalLoop=1;jettySize=auto;html=1;exitX=-0.021;exitY=0.769;exitDx=0;exitDy=0;entryX=1;entryY=0.5;entryDx=0;entryDy=0;exitPerimeter=0;" parent="1" source="sHaU1hGDwePTZCBr7m-u-54" edge="1">
                    <mxGeometry relative="1" as="geometry">
                        <mxPoint x="365.94000000000005" y="333.00800000000004" as="sourcePoint"/>
                        <mxPoint x="230" y="419" as="targetPoint"/>
                        <Array as="points">
                            <mxPoint x="357" y="419"/>
                        </Array>
                    </mxGeometry>
                </mxCell>
                <mxCell id="sHaU1hGDwePTZCBr7m-u-59" value="" style="edgeStyle=orthogonalEdgeStyle;rounded=0;orthogonalLoop=1;jettySize=auto;html=1;exitX=1;exitY=0.5;exitDx=0;exitDy=0;entryX=0;entryY=0.5;entryDx=0;entryDy=0;" parent="1" source="sHaU1hGDwePTZCBr7m-u-53" target="sHaU1hGDwePTZCBr7m-u-19" edge="1">
                    <mxGeometry relative="1" as="geometry">
                        <mxPoint x="565" y="250.01" as="sourcePoint"/>
                        <mxPoint x="480" y="50.004000000000026" as="targetPoint"/>
                        <Array as="points">
                            <mxPoint x="530" y="315"/>
                            <mxPoint x="530" y="99"/>
                        </Array>
                    </mxGeometry>
                </mxCell>
            </root>
        </mxGraphModel>
    </diagram>
</mxfile>